<svg xmlns="http://www.w3.org/2000/svg" viewBox="0 0 160 170">
  <!-- head + shoulders poking out of the top box half -->
  <path d="M40 170 C 40 140, 120 140, 120 170Z" fill="var(--dolly-a)" stroke="var(--ink)" stroke-width="6" stroke-linejoin="round" stroke-linecap="round"/>
  <path d="M62 140 L 62 124 L 98 124 L 98 140" fill="var(--skin-3)" stroke="var(--ink)" stroke-width="5"/>
  <circle cx="80" cy="92" r="38" fill="var(--skin-3)" stroke="var(--ink)" stroke-width="6" stroke-linejoin="round" stroke-linecap="round"/>
  <!-- harlequin hair buns + ribbons -->
  <path d="M44 80 C 40 40, 120 40, 116 80 C 104 62, 56 62, 44 80Z" fill="var(--midnight)" stroke="var(--ink)" stroke-width="6" stroke-linejoin="round" stroke-linecap="round"/>
  <circle cx="44" cy="58" r="16" fill="var(--midnight)" stroke="var(--ink)" stroke-width="6" stroke-linejoin="round" stroke-linecap="round"/><circle cx="116" cy="58" r="16" fill="var(--midnight)" stroke="var(--ink)" stroke-width="6" stroke-linejoin="round" stroke-linecap="round"/>
  <path d="M30 48 L 18 36 L 22 58Z M130 48 L 142 36 L 138 58Z" fill="var(--marigold)" stroke="var(--ink)" stroke-width="4"/>
  <!-- painted diamond on eye, big lashes -->
  <path d="M60 86 L 66 74 L 72 86 L 66 98Z" fill="var(--dolly-b)" stroke="var(--ink)" stroke-width="3"/>
  <ellipse cx="66" cy="88" rx="6" ry="8" fill="var(--white)" stroke="var(--ink)" stroke-width="4"/><circle cx="68" cy="89" r="3.5" fill="var(--ink)"/>
  <ellipse cx="96" cy="88" rx="6" ry="8" fill="var(--white)" stroke="var(--ink)" stroke-width="4"/><circle cx="98" cy="89" r="3.5" fill="var(--ink)"/>
  <path d="M58 78 L 54 72 M62 76 L 60 70 M90 76 L 88 70 M100 76 L 102 70 M104 78 L 108 72" stroke="var(--ink)" stroke-width="3" stroke-linecap="round"/>
  <circle cx="62" cy="106" r="6" fill="var(--rani)" opacity="0.5"/><circle cx="104" cy="106" r="6" fill="var(--rani)" opacity="0.5"/>
  <path d="M74 110 C 80 120, 92 120, 96 110 C 88 114, 80 114, 74 110Z" fill="var(--vermilion)" stroke="var(--ink)" stroke-width="3"/>
  <circle cx="80" cy="56" r="5" fill="var(--marigold)" stroke="var(--ink)" stroke-width="2"/>
</svg>
