<svg xmlns="http://www.w3.org/2000/svg" viewBox="0 0 110 130">
  <path d="M55 30 C 54 18, 60 8, 70 6" fill="none" stroke="var(--wood)" stroke-width="5"/>
  <path d="M70 6 l5 -6 l2 8 l8 -2 l-6 6 l6 5 l-8 0 l-2 8 l-3 -8" fill="var(--marigold)" stroke="var(--vermilion)" stroke-width="2"/>
  <path d="M20 120 C 14 80, 30 34, 55 30 C 80 34, 96 80, 90 120Z" fill="var(--rani)" stroke="var(--ink)" stroke-width="6" stroke-linejoin="round" stroke-linecap="round"/>
  <path d="M26 96 C 46 104, 66 104, 86 96" fill="none" stroke="var(--marigold)" stroke-width="7"/>
  <path d="M30 76 C 46 82, 66 82, 82 76" fill="none" stroke="var(--teal)" stroke-width="6"/>
  <path d="M40 58 C 44 52, 50 52, 52 58 M60 58 C 64 52, 70 52, 72 58" fill="none" stroke="var(--ink)" stroke-width="5" stroke-linecap="round"/>
  <path d="M42 66 L 72 64" stroke="var(--ink)" stroke-width="4" stroke-linecap="round"/>
  <path d="M30 124 L 22 128 M 80 124 L 88 128" stroke="var(--ink)" stroke-width="6" stroke-linecap="round"/>
</svg>
