<svg xmlns="http://www.w3.org/2000/svg" viewBox="0 0 1200 400">
  <g stroke="var(--ink)" stroke-width="6" stroke-linejoin="round"><rect x="40" y="200" width="300" height="200" fill="var(--wood)"/><path d="M40 200 L340 200 L370 140 L10 140Z" fill="var(--vermilion)"/><path d="M10 140 L370 140 L370 160 C340 180, 320 160, 300 176 C280 160, 260 180, 240 166 C220 180, 200 160, 180 176 C160 160, 140 180, 120 166 C100 180, 80 160, 60 176 C40 160, 20 176, 10 160Z" fill="var(--paper)"/><rect x="70" y="240" width="240" height="70" fill="var(--wood-dark)"/><path d="M40 200 V400 M340 200 V400" stroke-width="10"/></g>
<g stroke="var(--ink)" stroke-width="6" stroke-linejoin="round"><rect x="440" y="200" width="300" height="200" fill="var(--wood)"/><path d="M440 200 L740 200 L770 140 L410 140Z" fill="var(--teal)"/><path d="M410 140 L770 140 L770 160 C740 180, 720 160, 700 176 C680 160, 660 180, 640 166 C620 180, 600 160, 580 176 C560 160, 540 180, 520 166 C500 180, 480 160, 460 176 C440 160, 420 176, 410 160Z" fill="var(--paper)"/><rect x="470" y="240" width="240" height="70" fill="var(--wood-dark)"/><path d="M440 200 V400 M740 200 V400" stroke-width="10"/></g>
<g stroke="var(--ink)" stroke-width="6" stroke-linejoin="round"><rect x="840" y="200" width="300" height="200" fill="var(--wood)"/><path d="M840 200 L1140 200 L1170 140 L810 140Z" fill="var(--magenta)"/><path d="M810 140 L1170 140 L1170 160 C1140 180, 1120 160, 1100 176 C1080 160, 1060 180, 1040 166 C1020 180, 1000 160, 980 176 C960 160, 940 180, 920 166 C900 180, 880 160, 860 176 C840 160, 820 176, 810 160Z" fill="var(--paper)"/><rect x="870" y="240" width="240" height="70" fill="var(--wood-dark)"/><path d="M840 200 V400 M1140 200 V400" stroke-width="10"/></g>
  <!-- goods: jalebi coils, toys, glass bangles -->
  <g stroke="var(--ink)" stroke-width="4">
    <circle cx="120" cy="270" r="18" fill="var(--saffron)"/><circle cx="170" cy="275" r="16" fill="var(--saffron)"/><circle cx="220" cy="268" r="18" fill="var(--saffron)"/><circle cx="270" cy="275" r="14" fill="var(--saffron)"/>
    <path d="M480 280 l20 -40 l20 40Z" fill="var(--rani)"/><path d="M540 280 l20 -40 l20 40Z" fill="var(--marigold)"/><path d="M600 280 l20 -40 l20 40Z" fill="var(--leaf)"/>
    <circle cx="900" cy="270" r="18" fill="none" stroke="var(--peacock)" stroke-width="6"/><circle cx="950" cy="270" r="18" fill="none" stroke="var(--vermilion)" stroke-width="6"/><circle cx="1000" cy="270" r="18" fill="none" stroke="var(--marigold)" stroke-width="6"/>
  </g>
  <!-- bunting -->
  <path d="M0 40 C 300 110, 900 110, 1200 40" fill="none" stroke="var(--ink)" stroke-width="4"/>
  <g stroke="var(--ink)" stroke-width="3"><path d="M0 40 L40 42 L20 80Z" fill="var(--vermilion)"/>
<path d="M50 51 L90 53 L70 91Z" fill="var(--marigold)"/>
<path d="M100 61 L140 63 L120 101Z" fill="var(--teal)"/>
<path d="M150 71 L190 73 L170 111Z" fill="var(--magenta)"/>
<path d="M200 79 L240 81 L220 119Z" fill="var(--vermilion)"/>
<path d="M250 86 L290 88 L270 126Z" fill="var(--marigold)"/>
<path d="M300 92 L340 94 L320 132Z" fill="var(--teal)"/>
<path d="M350 98 L390 100 L370 138Z" fill="var(--magenta)"/>
<path d="M400 102 L440 104 L420 142Z" fill="var(--vermilion)"/>
<path d="M450 106 L490 108 L470 146Z" fill="var(--marigold)"/>
<path d="M500 108 L540 110 L520 148Z" fill="var(--teal)"/>
<path d="M550 110 L590 112 L570 150Z" fill="var(--magenta)"/>
<path d="M600 110 L640 112 L620 150Z" fill="var(--vermilion)"/>
<path d="M650 110 L690 112 L670 150Z" fill="var(--marigold)"/>
<path d="M700 108 L740 110 L720 148Z" fill="var(--teal)"/>
<path d="M750 106 L790 108 L770 146Z" fill="var(--magenta)"/>
<path d="M800 102 L840 104 L820 142Z" fill="var(--vermilion)"/>
<path d="M850 98 L890 100 L870 138Z" fill="var(--marigold)"/>
<path d="M900 92 L940 94 L920 132Z" fill="var(--teal)"/>
<path d="M950 86 L990 88 L970 126Z" fill="var(--magenta)"/>
<path d="M1000 79 L1040 81 L1020 119Z" fill="var(--vermilion)"/>
<path d="M1050 71 L1090 73 L1070 111Z" fill="var(--marigold)"/>
<path d="M1100 61 L1140 63 L1120 101Z" fill="var(--teal)"/>
<path d="M1150 51 L1190 53 L1170 91Z" fill="var(--magenta)"/></g>
</svg>
